<svg viewBox="0 0 144 34" xmlns="http://www.w3.org/2000/svg"><g fill-rule="nonzero" fill="none"><path d="M.139 32.345c-.017-.292.055-.351.105-.47.011-.026.035-.007.044-.034a.448.448 0 0 0 .033-.162 1.438 1.438 0 0 0-.054-.275 1.305 1.305 0 0 1-.029-.62.852.852 0 0 0 .001-.375 1.245 1.245 0 0 0-.135-.404 1.205 1.205 0 0 1-.095-.226.502.502 0 0 1-.005-.15c.05-.07.101-.133.154-.181.03-.026.07.013.092-.032.042-.084-.023-.183-.018-.283l-.003-.058c-.006-.162-.004-.32-.055-.462-.023-.063-.021-.197.024-.216.066-.03.043-.122.013-.235a3.934 3.934 0 0 1-.058-.256c-.01-.05-.068-.242-.049-.299.01-.027.027.01.039.011.017 0 .025-.016.034-.06.015-.066.03-.193.06-.198.054-.009.06-.34.108-.433.073-.14.07-.349.057-.576-.018-.318-.02-.318.045-.513.008-.026.018-.051.022-.084.018-.12.05-.145.093-.13a.1.1 0 0 0 .058.005c.053-.012.064-.082.023-.191-.048-.124-.106-.207-.159-.312-.032-.067-.072-.127-.092-.219a1.519 1.519 0 0 1-.015-.303c0-.023.038-.044.058-.033.026.014.054.11.07-.019.014-.11-.013-.158-.039-.212-.005-.011-.01-.028-.014-.043-.055-.174-.053-.259.014-.33.056-.061.082-.174.073-.366-.005-.116 0-.242-.015-.347-.021-.144-.002-.14.032-.145.02-.003.055-.035.054-.06a1 1 0 0 0-.029-.204c-.017-.072-.042-.128-.059-.2-.006-.023 0-.071.002-.108.01.013.02.029.03.04.033.034.067.086.1.094.02.006.058-.057.056-.087-.004-.085-.02-.222-.039-.246-.085-.102-.1-.335-.11-.52-.012-.23-.05-.354-.113-.412-.068-.063-.035-.113-.01-.164.05-.102.067-.231.044-.432-.01-.09-.02-.228.032-.247.064-.024.064-.17.04-.3-.04-.199.003-.152.038-.158.023-.004.054-.01.066-.054.022-.084-.024-.365-.063-.42-.04-.054-.081-.092-.118-.16-.015-.025-.02-.11-.028-.168.015-.003.032-.024.044-.005.077.12.123-.066.184-.102a.348.348 0 0 0 .01-.126 1.509 1.509 0 0 0-.039-.198c-.028-.112-.07-.204.003-.291.044-.053.029-.196-.021-.283a1.024 1.024 0 0 1-.078-.178c-.015-.043-.02-.112-.03-.169.019-.02.037-.048.057-.056.022-.008.046.014.067 0a.123.123 0 0 0 .049-.09.69.69 0 0 0-.018-.21c-.093-.15-.078-.385-.059-.561a.588.588 0 0 0-.03-.316c-.011-.032-.014-.099-.02-.15.016.004.031.001.047.013.012.01.023.044.035.054.005.004.017-.042.016-.044-.035-.135-.022-.349-.101-.416-.062-.051-.097-.25-.095-.422.001-.168.044-.228.086-.237.078-.016.094-.141.093-.356 0-.227.015-.252.09-.254.083-.001.093-.063.043-.282a.751.751 0 0 0-.051-.148.293.293 0 0 1-.017-.213.617.617 0 0 0-.038-.378 2.45 2.45 0 0 1-.057-.158 2.937 2.937 0 0 1-.03-.147c-.012-.066-.006-.15.011-.18.025-.04.05-.077.074-.121a.275.275 0 0 0 .02-.143l-.008-.103c-.01-.11-.033-.222-.013-.333.016-.083.008-.2.034-.27.01-.03.005-.063-.015-.11l-.017-.042c.022-.065.022-.19.06-.212.007-.004.013-.015.019-.026a.284.284 0 0 0 .023-.166l-.028-.271a.962.962 0 0 0 .016-.181.314.314 0 0 0 .005-.12 1.157 1.157 0 0 0-.008-.051 3.257 3.257 0 0 0-.014-.212 2.202 2.202 0 0 1-.015-.26c.003-.18.2-.424.16-.557-.017-.06-.038-.114-.055-.177-.043-.169-.04-.173.017-.262a.272.272 0 0 0 .036-.13.683.683 0 0 0-.035-.197c-.054-.134-.113-.25-.169-.376-.034-.077.15-.303.155-.433.008-.188.012-.453-.026-.55-.061-.15-.034-.119-.095-.27 0 0 .19-.39.17-.512-.001-.01.036-.065.054-.1.01-.02.023-.035.028-.064 0 0 .063-.146-.072-.262 0 0-.27-.5.026-.596l.064-.12.042-.165s.083-.321.146-.373l.035-.034c.023-.02.077-.023.107-.03a.174.174 0 0 0 .067-.027c.04-.03.086-.04.132-.056a.277.277 0 0 1 .194 0c.017.007.035.014.053.015 0 0 .166.028.387.086 7.983 2.08 35.738-.172 54.358-5.236.475-.13 1.256-.308 1.418-.347.162-.04.051.133-.123.275-.115.094-.693.19-.729.218-.02.015-.05.052-.044.066.12.27.85-.01 1.14-.044.293-.034.273.09.106.195-.254.159-.319.37-.206.476.024.023.078.016.1.04.034.037.084.098.073.131a.454.454 0 0 1-.128.188c-.128.114-.175.308-.075.453.07.102.053.19-.004.28-.075.118-.904.436-1.039.49-.079.032-.221.095-.286.15-.023.018-.048.103-.034.112.113.07.979-.302 1.1-.249.065.029 1.093-.3.64.019-.1.07-.424.352-.416.428.002.014-.005.028-.007.043-.017.119-.014.237-.133.326-.052.04-.05.14.052.17.15.043.096.105.026.18-.147.155-.633.367-.775.526-.015.017-.013.048-.018.072.028.003.07.018.08.006.08-.083.18-.039.281-.081.224-.094.794-.298.866-.369.138-.133.362-.058.216.173-.048.075-.092.023-.137.158-.008.026-.049.069-.156.182-.096.102-.18.213-.07.298.166.129.154.284.122.45-.045.231-.048.23.095.397.019.022.04.045.05.07.038.096.113.125.21.128a.707.707 0 0 1 .131.015c.122.027.147.083.05.15-.11.077-.244.12-.365.181-.076.039-.168.07-.215.133-.042.054-.098.174-.038.221.099.078.447-.089.492-.09.06-.002.126-.064.161.037.03.087-.761.326-.82.358-.013.007-.023.018-.034.027-.128.113.114.147.28.182.14.029.588-.142.503-.049-.033.036-.288.158-.316.242-.04.123-.139.081-.145.12-.014.086-.004.182-.04.255-.051.1-.006.103.071.118.046.01-.009.098-.01.117a.274.274 0 0 1-.07.142c-.039.049-.096.082-.137.13-.014.015 0 .054.002.082.023-.007.585-.162.609-.166.076-.015.183-.055.258-.05.046.003.22-.025.12.102-.04.05-.016.026-.2.108s-.168.068-.695.427c-.298.203-.184.112-.347.246-.065.054.015.151.15.092.377-.167 1.177-.37 1.118-.242-.072.156-.222.265-.272.414-.062.185-.19.126-.252.168-.057.04-.054.187.064.218.146.04.06.162 0 .25-.092.137.007.116.085.132.054.01.483-.07.509-.034.049.07-.316.244-.432.282-.026.008-.159.032-.358.208-.017.051-.093.163-.064.166.095.008.174-.025.343-.039.328-.028.356-.162.526-.14.131.016-.238.105-.332.286-.072.138-.128.109-.164.149-.068.074-.163.129 0 .218.1.054.255.124.14.173-.064.027-.086.104-.084.172.002.049.107.002.216.06.043.02.164.019.21.032.048.013.083.012.13.029.043.016.192.021.197.055.009.049-.205.155-.237.167-.16.06-.42.232-.41.387.003.046.5-.222.614-.158.128.072-.18.05-.247.216-.08.198-.376.165-.388.2-.012.033-.038.06-.08.09-.028.02-.034.069-.05.104.036.003.072.01.107.006.028-.003.054-.025.082-.028.01-.001.037.036.035.038-.08.09-.288.19-.237.276.02.034.204-.068.34-.097.211-.045.183-.11.296-.116.104-.005.2-.092.163.002-.013.03-.06.074-.143.086-.085.013-.128.1-.108.1.086 0 .22.027.221.063 0 .063.092.032.128.065.036.033.297-.138.277.023-.01.09-.179.268-.372.355-.087.04-.339.145-.343.262-.005.17.74-.009.911.017.19.029.212.078.095.225a.407.407 0 0 1-.12.093c-.07.04-.088.077-.042.154.07.115.015.2-.091.27a1.41 1.41 0 0 0-.217.175c-.026.025-.026.074-.038.112.042.008.085.028.124.022.084-.012.167-.055.25-.054.139.004.147.035.097.17a.533.533 0 0 0-.037.189c.003.136-.07.23-.161.316-.042.039-.09.071-.13.113-.1.112-.095.115.034.201.037.025.083.075.08.109a.205.205 0 0 1-.081.136c-.126.082.45-.064.58.362.016.143.493.222.403.28-.14.093-.31.142-.45.235-.077.05-.12.152-.167.236-.004.007.079.06.12.092.022.018.052.034.062.058.06.14.176.176.319.189.072.006.14.054.21.084-.061.056-.114.127-.186.166-.08.044-.183.048-.267.089-.073.036.091.065.05.13-.034.052-.024.138-.011.205.002.014.1.008.152.018.03.006.078.018.085.038.011.035.012.09-.009.116-.035.043-.341.085-.381.126-.086.088-.076.17.042.212.28.103.632.282.495.51-.063.104-.008.086.045.1.035.008.074.006.11.015.102.027.108.06.028.14-.051.052-.359.162-.405.217-.01.013-1.053.485.02.165.018-.003.135-.048.229-.087.072-.03.198-.044.283-.077.047-.019.114.037.13.087.022.065-.017.121-.1.14-.043.01-.102.038-.118.074-.055.126-.19.21-.184.376.003.05-.097.117-.164.152a.316.316 0 0 0-.08.055l-.017.08a.107.107 0 0 0 .041.034c.147.078.11.176.09.29-.014.084.362-.09.488-.057.122.032.12.136.062.204-.087.1-.043.102.052.116.058.008.158.046.159.074a.555.555 0 0 1-.06.24c-.015.03-.072.048-.112.062-.089.033-.18.056-.269.09-.018.007-.036.045-.033.066.002.017.046.045.057.04.148-.077.25.032.364.086.061.03-.362.175-.2.242.127.053.132-.037.208-.035.173.006-.046.142-.323.155-.158.007-.22.175-.254.2-.063.049-.047.163.277.039.151-.058.614.172.457.229a4.203 4.203 0 0 0-.25.155c-.051.065-.142.066-.05.157.063.027.023.1.086.124.026.01.162.008.186.02.047.026.251-.212.308-.088.022.048-.321.296-.366.327-.1.069-.347.177-.435.287-.027.036.226-.046.256-.068.121-.088.242.002.246.018.008.029-.395.143-.501.286-.04.054-.043.118-.105.165-.081.061-.094.082.018.11.036.01.588-.167.79-.147.217.02.014.128-.02.16-.024.023-.041.265-.068.287-.054.045-.211.14-.238.201-.069.153 1.044.294.865.368C29.677 38.658.816 32.69.128 32.408c0 0 .013-.022.01-.063" fill="#FF4C52"/><path fill="#333" d="M141.07 20.133V15.21l-2.16.845v4.078h-4.849l5.913-10.207h-2.399l-6.254 10.769v1.649h7.589v4.054h2.16v-4.054h2.794v-2.211zM123.394 24.14c.338-.268.68-.535 1.022-.802 3.155-2.46 6.418-5.004 6.418-8.723 0-2.914-2.076-4.948-5.05-4.948-2.61 0-5.42 1.77-5.42 5.655 0 .187.011.396.03.526l2.13-.833c0-2.137 1.57-3.255 3.121-3.255 1.508 0 3.028.97 3.028 3.137 0 2.807-2.829 5.004-6.745 8.045-.558.434-1.14.885-1.74 1.359l-.034.027v2.07h11.122V24.14h-7.882ZM116.071 10.81l-2.114.824v2.635h-2.002v1.952h2.002v6.65c0 3.32 1.865 3.816 2.977 3.816.495 0 1.005-.078 1.562-.24l.066-.018v-2.124l-.14.091c-.326.212-.708.34-1.022.34-.845 0-1.329-.62-1.329-1.7V16.22h2.49V14.27h-2.49v-3.46ZM108.448 21.244c0 2.237-1.62 3.444-3.145 3.444-1.16 0-2.4-.7-2.4-2.666V14.27h-2.113v7.753c0 3.443 2.206 4.665 4.095 4.665 1.519 0 2.858-.736 3.552-1.937l.403 1.654h1.722V14.27h-2.114v6.975ZM93.538 13.963c-3.41 0-5.887 2.676-5.887 6.362 0 3.687 2.476 6.362 5.887 6.362 3.412 0 5.887-2.675 5.887-6.362 0-3.686-2.475-6.362-5.887-6.362m3.727 6.362c0 2.818-1.863 4.292-3.703 4.292-1.864 0-3.75-1.474-3.75-4.292 0-2.474 1.577-4.269 3.75-4.269 2.145 0 3.703 1.795 3.703 4.269M85.116 22.722c-.617 1.16-1.77 1.872-3.066 1.872-1.797 0-3.61-1.327-3.61-4.293 0-2.044 1.086-4.245 3.47-4.245 1.19 0 2.247.644 2.806 1.695l2.016-.781-.037-.078c-.837-1.807-2.67-2.93-4.784-2.93-1.489 0-2.868.562-3.882 1.58-1.144 1.15-1.75 2.803-1.75 4.783 0 4.371 2.944 6.362 5.678 6.362 2.126 0 4.01-1.172 5.039-3.137l.04-.077-.017-.008-1.903-.743ZM70.382 16.876l-.193-.078c-1.752-.715-2.992-1.343-2.992-2.932 0-1.564 1.23-2.383 2.446-2.383.98 0 2.224.528 2.708 1.683l2.063-.812-.03-.078c-.813-2.042-2.955-2.957-4.718-2.957-2.308 0-4.793 1.475-4.793 4.712 0 3.162 2.392 4.147 4.314 4.938l.235.098c1.963.82 3.25 1.478 3.25 3.097 0 1.678-1.393 2.43-2.773 2.43-1.364 0-2.992-.737-3.473-2.805l-.021-.091-2.188.84c.659 2.584 2.835 4.243 5.589 4.243 1.385 0 2.674-.427 3.63-1.204 1.08-.878 1.652-2.132 1.652-3.626 0-3.175-2.5-4.185-4.706-5.075M49.367 14.072c3.558 0 5.829 2.845 5.829 6.306 0 3.484-2.27 6.305-5.83 6.305-3.58 0-5.828-2.821-5.828-6.305 0-3.461 2.247-6.306 5.829-6.306m.023 10.714c2.341 0 3.816-2.038 3.816-4.408 0-2.37-1.475-4.386-3.816-4.386-2.364 0-3.862 2.015-3.862 4.386 0 2.37 1.498 4.408 3.862 4.408M41.735 24.905c.351 0 .75-.142 1.077-.356v1.897a5.535 5.535 0 0 1-1.545.237c-1.498 0-2.903-.877-2.903-3.746v-6.779h-2.013V14.38h2.013v-2.678l1.943-.759v3.437h2.505v1.778h-2.505v6.945c0 1.257.632 1.802 1.428 1.802M29.993 14.072c3.558 0 5.829 2.845 5.829 6.306 0 3.484-2.271 6.305-5.83 6.305-3.581 0-5.828-2.821-5.828-6.305 0-3.461 2.247-6.306 5.829-6.306m.023 10.714c2.341 0 3.816-2.038 3.816-4.408 0-2.37-1.475-4.386-3.816-4.386-2.364 0-3.862 2.015-3.862 4.386 0 2.37 1.498 4.408 3.862 4.408M12.884 24.052l-4.869-9.458v11.804H5.908V9.758h2.107l5.853 11.662L19.72 9.758h2.083v16.64H19.72V14.594l-4.846 9.458z"/></g></svg>
