<svg width="152" height="24" viewBox="0 0 152 24" fill="none" xmlns="http://www.w3.org/2000/svg">
<path d="M149.804 13.9095C149.576 14.2381 149.501 14.5667 149.576 15.0048C149.728 15.5524 149.501 16.1548 149.274 16.7024C149.122 17.25 148.743 17.7976 148.516 18.2905C148.289 18.6738 148.062 19.1119 147.835 19.55C148.365 20.0429 148.213 19.9881 147.153 20.8643C147.38 21.0286 147.532 21.2476 147.759 21.4667C146.85 21.631 146.017 21.7952 145.032 21.7952C142.609 21.7952 140.185 21.9595 137.762 22.069C131.703 22.2333 125.569 22.3976 119.51 22.5619C117.313 22.6167 115.193 22.5071 112.997 22.5071C112.088 22.5071 111.103 22.4524 110.194 22.5071C109.74 22.5071 109.21 22.6167 108.755 22.6167C107.316 22.6167 105.953 22.6167 104.514 22.5619C104.363 22.5619 104.136 22.5071 103.984 22.5619C101.636 22.7262 99.2127 22.4524 96.865 22.5071C95.7289 22.5619 94.5929 22.5619 93.4569 22.5619C92.1694 22.5619 90.8819 22.5619 89.5944 22.5619C86.3378 22.5619 83.0812 22.5619 79.8246 22.5071C76.9467 22.4524 74.0688 22.3429 71.1908 22.2881C69.2975 22.2333 67.3284 22.2333 65.3592 22.2333C64.3747 22.2333 63.3901 22.1786 62.4056 22.1786C61.5725 22.1786 60.8151 22.2333 59.9821 22.2333C59.3762 22.2333 58.7703 22.069 58.0887 22.069C57.1799 22.069 56.2711 22.1786 55.2865 22.1786C51.8784 22.1238 48.5461 22.069 45.138 22.0143C41.2755 22.0143 37.3373 22.0143 33.4748 22.0143C32.3388 22.0143 31.2785 22.1238 30.1425 22.1238C29.6881 22.1238 29.1579 22.0143 28.7035 22.0143C27.1131 22.0143 25.5984 22.069 24.008 22.069C23.705 22.069 23.4021 22.069 23.2506 22.3429C23.2506 22.4524 22.8719 22.4524 22.6447 22.5071C19.3881 22.5619 16.1315 22.6167 12.8749 22.6714C11.5874 22.6714 10.3757 22.7262 9.08819 22.781C8.40658 22.8357 7.8007 23 7.11908 23C5.75586 22.9452 4.39263 22.8905 3.0294 22.781C2.57499 22.7262 2.19631 22.5071 1.81764 22.2333C0.984555 21.631 0.378676 20.919 0.302941 20.0429C0.227206 19.331 0.0757349 18.5643 0 17.8524C0 17.5238 0.0757355 17.1952 0.15147 16.8667C0.227205 16.6476 0.227206 16.4286 0.302941 16.2095C0.454411 15.2238 0.378676 14.1833 0.681615 13.1976C0.833085 12.4857 0.984554 11.7738 0.833084 11.0619C0.833084 10.8976 1.06029 10.7333 1.13602 10.5143C1.43896 9.63809 1.66617 8.70714 1.96911 7.83095C2.12058 7.33809 2.49925 6.79048 2.34778 6.35238C2.12058 5.58572 2.87793 4.87381 2.42352 4.16191C2.27205 3.94286 2.49925 3.61429 2.65072 3.34048C2.65072 3.23095 2.87793 3.06667 2.80219 3.06667C2.34778 2.7381 2.80219 2.40952 2.95366 2.19048C3.2566 1.75238 2.95366 1.25952 3.63528 0.821428C4.16542 0.492857 4.61983 0.328573 5.22571 0.328573C6.89188 0.273811 8.63378 0.219048 10.3 0.219048C13.1021 0.164287 15.8286 0.109524 18.6308 0.109524C21.7359 0.0547623 24.9168 0.0547619 28.0219 0C30.1425 0 32.2631 0 34.3837 0C37.1101 0 39.7608 0 42.4873 0C43.7748 0 44.9865 1.25542e-06 46.274 0.0547632C47.8645 0.0547632 49.3792 0.0547623 50.9696 0.109524C53.3174 0.109524 55.5894 0.164287 57.9372 0.219048C60.285 0.27381 62.7085 0.328572 65.0563 0.383334C67.2526 0.438096 69.3732 0.438095 71.5695 0.547619C74.5232 0.657143 77.4768 0.766667 80.4305 0.821428C82.4753 0.87619 84.5202 0.766667 86.565 0.821428C88.7613 0.87619 91.0334 0.985714 93.2297 0.985714C95.8047 0.985714 98.3797 0.930953 101.03 0.930953C105.272 0.930953 109.513 0.985714 113.678 0.985714C116.708 0.985714 119.737 0.930954 122.842 0.876192C126.402 0.82143 130.037 0.766666 133.596 0.711904C136.702 0.657142 139.731 0.492858 142.76 0.383334C145.184 0.27381 147.683 0.219047 150.182 0.164285C150.713 0.164285 151.167 0.328571 151.697 0.438095C151.47 1.09524 151.546 1.53333 151.924 1.86191C151.318 2.13571 151.546 2.40952 151.924 2.57381C151.697 2.90238 151.47 3.17619 151.394 3.45C151.243 3.77857 151.318 4.10714 152 4.10714C151.621 4.27143 151.318 4.38095 150.864 4.54524C150.94 4.65476 151.015 4.76428 151.091 4.81905C151.697 5.03809 152.076 5.85952 151.621 6.24286C151.47 6.40714 151.015 6.40714 150.712 6.4619C150.712 6.51667 150.712 6.62619 150.712 6.62619C151.394 6.84524 151.243 7.3381 151.318 7.72143C151.318 8.15952 151.167 8.48809 150.788 8.87143C150.637 9.03571 150.788 9.36429 150.712 9.6381C150.712 9.80238 150.788 10.0214 150.712 10.131C150.031 10.8429 150.107 11.6643 150.031 12.4857C150.031 12.7048 149.955 12.869 149.879 13.0333C149.804 13.1976 149.274 13.5262 149.804 13.9095Z" fill="white"/>
</svg>
